<svg id="Layer_1" data-name="Layer 1" xmlns="http://www.w3.org/2000/svg" viewBox="0 0 820 820"><defs><style>.cls-1{fill:#fff;}.cls-2{fill:none;}</style></defs><title>logo-02</title><path class="cls-1" d="M1133.3-111c-55.6-17.7-118.7-37.8-192.2,6.8S856.3,5.6,846.3,63.1c-9.3,53.3-17.2,99.3-70.4,131.6s-97.7,18.1-149.2,1.7c-55.6-17.7-118.7-37.8-192.2,6.8S349.7,313,339.7,370.5c-9.3,53.3-17.3,99.3-70.4,131.5s-97.7,18.1-149.2,1.7C64.5,486,1.4,465.9-72.1,510.5s-84.8,109.8-94.8,167.3c-9.3,53.3-17.3,99.3-70.4,131.5S-335,827.4-386.5,811c-55.6-17.7-118.7-37.8-192.2,6.8a26.36,26.36,0,0,0-5.4,4.5l26,42.9a24.23,24.23,0,0,0,6.5-2.7c53.2-32.2,97.7-18.1,149.2-1.7,55.6,17.7,118.7,37.8,192.2-6.8s84.8-109.8,94.8-167.3c9.3-53.3,17.3-99.3,70.4-131.5s97.7-18.1,149.2-1.7c55.6,17.7,118.7,37.8,192.2-6.8s84.8-109.8,94.8-167.3c9.3-53.3,17.3-99.3,70.4-131.6s97.7-18.1,149.2-1.7c55.6,17.7,118.7,37.8,192.2-6.8S887.8,129.5,897.8,72c9.3-53.3,17.3-99.3,70.4-131.6s97.7-18.1,149.2-1.7c53.4,17,113.7,36,183.4-1.9l-27.1-44.7C1224.4-82,1182-95.5,1133.3-111Z"/><path class="cls-1" d="M1077.7-202.6c-55.6-17.7-118.7-37.8-192.2,6.8S800.8-86,790.8-28.5c-9.3,53.3-17.2,99.3-70.4,131.6s-97.7,18.1-149.2,1.7C515.5,87,452.5,66.9,379,111.5s-84.8,109.8-94.8,167.3c-9.3,53.3-17.3,99.3-70.4,131.5S116.1,428.4,64.6,412C9,394.3-54.1,374.2-127.6,418.8s-84.8,109.8-94.8,167.3c-9.3,53.3-17.3,99.3-70.4,131.5s-97.7,18.1-149.2,1.7c-55.6-17.7-118.7-37.8-192.2,6.8a26.36,26.36,0,0,0-5.4,4.5l26,42.9a24.23,24.23,0,0,0,6.5-2.7c53.2-32.2,97.7-18.1,149.2-1.7,55.6,17.7,118.7,37.8,192.2-6.8s84.8-109.8,94.8-167.3c9.3-53.3,17.3-99.3,70.4-131.5s97.7-18.1,149.2-1.7c55.6,17.7,118.7,37.8,192.2-6.8s84.8-109.8,94.8-167.3c9.3-53.3,17.3-99.3,70.4-131.6s97.7-18.1,149.2-1.7c55.6,17.7,118.7,37.8,192.2-6.8S832.3,37.8,842.3-19.7c9.3-53.3,17.3-99.3,70.4-131.6s97.7-18.1,149.2-1.7c53.4,17,113.7,36,183.4-1.9l-27.1-44.7C1168.8-173.6,1126.4-187.1,1077.7-202.6Z"/><path class="cls-1" d="M1018.7-299.9c-55.6-17.7-118.7-37.8-192.2,6.8s-84.8,109.8-94.8,167.3c-9.3,53.3-17.2,99.3-70.4,131.6s-97.6,18-149.2,1.6c-55.6-17.7-118.7-37.8-192.2,6.8S235.1,124,225.1,181.5c-9.3,53.3-17.3,99.3-70.4,131.5S57,331.1,5.5,314.7c-55.6-17.7-118.7-37.8-192.2,6.8s-84.8,109.8-94.8,167.3c-9.3,53.3-17.3,99.3-70.4,131.5s-97.7,18.1-149.2,1.7c-55.6-17.7-118.7-37.8-192.2,6.8a26.36,26.36,0,0,0-5.4,4.5l26,42.9a24.23,24.23,0,0,0,6.5-2.7c53.2-32.2,97.7-18.1,149.2-1.7,55.6,17.7,118.7,37.8,192.2-6.8S-240,555.2-230,497.7c9.3-53.3,17.3-99.3,70.4-131.5s97.7-18.1,149.2-1.7c55.6,17.7,118.7,37.8,192.2-6.8s84.8-109.8,94.8-167.3c9.3-53.3,17.3-99.3,70.4-131.6s97.7-18.1,149.2-1.7c55.6,17.7,118.7,37.8,192.2-6.8S773.2-59.5,783.2-117c9.3-53.3,17.3-99.3,70.4-131.6s97.7-18.1,149.2-1.7c53.4,17,113.7,36,183.4-1.9l-27.1-44.7C1109.8-270.9,1067.4-284.4,1018.7-299.9Z"/><path class="cls-1" d="M963.2-391.4c-55.6-17.7-118.7-37.8-192.2,6.8s-84.8,109.8-94.8,167.3C666.9-164,659-118,605.8-85.7S508.1-67.6,456.6-84c-55.6-17.7-118.7-37.8-192.2,6.8S179.6,32.6,169.6,90.1c-9.3,53.3-17.3,99.3-70.4,131.5S1.5,239.5-50,223.1c-55.6-17.7-118.7-37.8-192.2,6.8S-327,339.7-337,397.2c-9.3,53.3-17.3,99.3-70.4,131.5s-97.7,18.1-149.2,1.7c-55.6-17.7-118.7-37.8-192.2,6.8a26.36,26.36,0,0,0-5.4,4.5l26,42.9a24.23,24.23,0,0,0,6.5-2.7c53.2-32.2,97.7-18.1,149.2-1.7,55.6,17.7,118.7,37.8,192.2-6.8s84.8-109.8,94.8-167.3c9.3-53.3,17.3-99.3,70.4-131.5s97.7-18.1,149.2-1.7c55.6,17.7,118.7,37.8,192.2-6.8s84.8-109.8,94.8-167.3c9.3-53.3,17.3-99.3,70.4-131.6s97.7-18.1,149.2-1.7c55.6,17.7,118.7,37.8,192.2-6.8s84.8-109.8,94.8-167.3c9.3-53.3,17.3-99.3,70.4-131.6s97.7-18.1,149.2-1.7c53.4,17,113.7,36,183.4-1.9l-27.1-44.7C1054.3-362.5,1011.9-375.9,963.2-391.4Z"/><path class="cls-1" d="M907.6-483c-55.6-17.7-118.7-37.8-192.2,6.8S630.7-366.5,620.7-309c-9.3,53.3-17.2,99.3-70.4,131.6s-97.7,18.1-149.2,1.7c-55.6-17.7-118.7-37.8-192.2,6.8S124-59.2,114.1-1.7c-9.3,53.3-17.3,99.3-70.4,131.5S-54,148-105.6,131.6c-55.6-17.7-118.7-37.8-192.2,6.8s-84.8,109.8-94.8,167.3C-401.9,359-409.9,405-463,437.2s-97.7,18.1-149.2,1.7c-55.6-17.7-118.7-37.8-192.2,6.8a26.36,26.36,0,0,0-5.4,4.5l26,42.9a24.23,24.23,0,0,0,6.5-2.7c53.2-32.2,97.7-18.1,149.2-1.7,55.6,17.7,118.7,37.8,192.2-6.8s84.8-109.8,94.8-167.3c9.3-53.3,17.3-99.3,70.4-131.5s97.7-18.1,149.2-1.7c55.6,17.7,118.7,37.8,192.2-6.8S155.5,64.8,165.5,7.3C174.8-46,182.8-92,236-124.3s97.7-18.1,149.2-1.7c55.6,17.7,118.7,37.8,192.2-6.8s84.8-109.8,94.8-167.3c9.3-53.3,17.3-99.3,70.4-131.6s97.7-18.1,149.2-1.7c53.4,17,113.7,36,183.4-1.9L1048.1-480C998.7-454.1,956.3-467.5,907.6-483Z"/><path class="cls-1" d="M852.1-574.6c-55.6-17.7-118.7-37.8-192.2,6.8S575.1-458,565.1-400.5c-9.3,53.3-17.2,99.3-70.4,131.6s-97.7,18.1-149.2,1.7c-55.6-17.7-118.7-37.8-192.2,6.8C79.8-216,68.5-150.8,58.5-93.2,49.2-40,41.3,6.1-11.9,38.3S-109.6,56.4-161.1,40c-55.6-17.7-118.7-37.8-192.2,6.8s-84.8,109.8-94.8,167.3c-9.3,53.3-17.3,99.3-70.4,131.5s-97.7,18.1-149.2,1.7c-55.6-17.7-118.7-37.8-192.2,6.8a26.36,26.36,0,0,0-5.4,4.5l26,42.9a24.23,24.23,0,0,0,6.5-2.7c53.2-32.2,97.7-18.1,149.2-1.7,55.6,17.7,118.7,37.8,192.2-6.8s84.8-109.8,94.8-167.3c9.3-53.3,17.3-99.3,70.4-131.5s97.7-18.1,149.2-1.7c55.6,17.7,118.7,37.8,192.2-6.8S100-26.8,110-84.3c9.3-53.3,17.3-99.3,70.4-131.6s97.7-18.1,149.2-1.7c55.6,17.7,118.7,37.8,192.2-6.8s84.8-109.8,94.8-167.3C625.9-445,633.9-491,687-523.3s97.7-18.1,149.2-1.7c53.4,17,113.7,36,183.4-1.9l-27.1-44.7C943.2-545.6,900.8-559.1,852.1-574.6Z"/><path class="cls-1" d="M793.1-671.9c-55.6-17.7-118.7-37.8-192.2,6.8s-84.8,109.8-94.8,167.3c-9.3,53.3-17.2,99.3-70.4,131.6s-97.7,18.1-149.2,1.7c-55.6-17.7-118.7-37.8-192.2,6.8C20.8-313.3,9.5-248.1-.5-190.5-9.8-137.3-17.8-91.2-70.9-59s-97.7,18.1-149.2,1.7C-275.7-75-338.8-95.1-412.3-50.5s-84.8,109.8-94.8,167.3c-9.3,53.3-17.3,99.3-70.4,131.5s-97.7,18.1-149.2,1.7c-55.6-17.7-118.7-37.8-192.2,6.8a26.36,26.36,0,0,0-5.4,4.5l26,42.9a24.23,24.23,0,0,0,6.5-2.7c53.2-32.2,97.7-18.1,149.2-1.7,55.6,17.7,118.7,37.8,192.2-6.8s84.8-109.8,94.8-167.3c9.3-53.3,17.3-99.3,70.4-131.5S-287.5-24-236-7.5c55.6,17.7,118.7,37.8,192.2-6.8S41-124.1,51-181.6c9.3-53.3,17.3-99.3,70.4-131.6s97.7-18.1,149.2-1.7c55.6,17.7,118.7,37.8,192.2-6.8S547.6-431.5,557.6-489c9.3-53.3,17.3-99.3,70.4-131.6s97.7-18.1,149.2-1.7c53.4,17,113.7,36,183.4-1.9l-27.1-44.7C884.2-642.9,841.8-656.4,793.1-671.9Z"/><path class="cls-1" d="M737.5-763.5c-55.6-17.7-118.7-37.8-192.2,6.8s-84.8,109.8-94.8,167.3c-9.3,53.3-17.2,99.3-70.4,131.6s-97.7,18.1-149.2,1.7c-55.6-17.7-118.7-37.8-192.2,6.8S-46.1-339.5-56.1-282c-9.3,53.3-17.3,99.3-70.4,131.5s-97.7,18.1-149.2,1.7c-55.6-17.7-118.7-37.8-192.2,6.8S-552.7-32.2-562.7,25.3c-9.3,53.3-17.3,99.3-70.4,131.5s-97.7,18.1-149.2,1.7c-55.6-17.7-118.7-37.8-192.2,6.8a26.36,26.36,0,0,0-5.4,4.5l26,42.9a24.23,24.23,0,0,0,6.5-2.7c53.2-32.2,97.7-18.1,149.2-1.7,55.6,17.7,118.7,37.8,192.2-6.8s84.8-109.8,94.8-167.3c9.3-53.3,17.3-99.3,70.4-131.5s97.7-18.1,149.2-1.7c55.6,17.7,118.7,37.8,192.2-6.8S-14.6-215.6-4.6-273.1c9.3-53.3,17.3-99.3,70.4-131.6s97.7-18.1,149.2-1.7c55.6,17.7,118.7,37.8,192.2-6.8S492-523,502-580.5c9.3-53.3,17.3-99.3,70.4-131.6s97.7-18.1,149.2-1.7c53.4,17,113.7,36,183.4-1.9l-27-44.5C828.6-734.5,786.2-748,737.5-763.5Z"/><path class="cls-1" d="M1584.6,633.1c-55.6-17.7-118.7-37.8-192.2,6.8s-84.8,109.8-94.8,167.3c-9.3,53.3-17.2,99.3-70.4,131.6s-97.7,18.1-149.2,1.7c-55.6-17.7-118.7-37.8-192.2,6.8S801,1057.1,791,1114.6c-9.3,53.3-17.3,99.3-70.4,131.5s-97.7,18.1-149.2,1.7c-55.6-17.7-118.7-37.8-192.2,6.8s-84.8,109.8-94.8,167.3c-9.3,53.3-17.3,99.3-70.4,131.5s-97.7,18.1-149.2,1.7c-55.6-17.7-118.7-37.8-192.2,6.8a26.36,26.36,0,0,0-5.4,4.5l26,42.9a24.23,24.23,0,0,0,6.5-2.7c53.2-32.2,97.7-18.1,149.2-1.7,55.6,17.7,118.7,37.8,192.2-6.8s84.8-109.8,94.8-167.3c9.3-53.3,17.3-99.3,70.4-131.5s97.7-18.1,149.2-1.7c55.6,17.7,118.7,37.8,192.2-6.8s84.8-109.8,94.8-167.3c9.3-53.3,17.3-99.3,70.4-131.6s97.7-18.1,149.2-1.7c55.6,17.7,118.7,37.8,192.2-6.8s84.8-109.8,94.8-167.3c9.3-53.3,17.3-99.3,70.4-131.6s97.7-18.1,149.2-1.7c53.4,17,113.7,36,183.4-1.9L1725,636.2C1675.7,662,1633.3,648.6,1584.6,633.1Z"/><path class="cls-1" d="M1529,541.5c-55.6-17.7-118.7-37.8-192.2,6.8S1252,658.1,1242,715.6c-9.3,53.3-17.2,99.3-70.4,131.6s-97.7,18.1-149.2,1.7c-55.6-17.7-118.7-37.8-192.2,6.8S745.4,965.5,735.4,1023c-9.3,53.3-17.3,99.3-70.4,131.5s-97.7,18.1-149.2,1.7c-55.6-17.7-118.7-37.8-192.2,6.8s-84.8,109.8-94.8,167.3c-9.3,53.3-17.3,99.3-70.4,131.5s-97.7,18.1-149.2,1.7c-55.6-17.7-118.7-37.8-192.2,6.8a26.36,26.36,0,0,0-5.4,4.5l26,42.9a24.23,24.23,0,0,0,6.5-2.7c53.2-32.2,97.7-18.1,149.2-1.7,55.6,17.7,118.7,37.8,192.2-6.8s84.8-109.8,94.8-167.3c9.3-53.3,17.3-99.3,70.4-131.5s97.7-18.1,149.2-1.7c55.6,17.7,118.7,37.8,192.2-6.8s84.8-109.8,94.8-167.3c9.3-53.3,17.3-99.3,70.4-131.6s97.7-18.1,149.2-1.7c55.6,17.7,118.7,37.8,192.2-6.8s84.8-109.8,94.8-167.3c9.3-53.3,17.3-99.3,70.4-131.6s97.7-18.1,149.2-1.7c53.4,17,113.7,36,183.4-1.9l-27.1-44.7C1620.1,570.5,1577.7,557,1529,541.5Z"/><path class="cls-1" d="M1470,444.2c-55.6-17.7-118.7-37.8-192.2,6.8S1193,560.8,1183,618.3c-9.3,53.3-17.2,99.3-70.4,131.6s-97.7,18.1-149.2,1.7c-55.6-17.7-118.7-37.8-192.2,6.8s-84.8,109.8-94.8,167.3c-9.3,53.3-17.3,99.3-70.4,131.5s-97.7,18.1-149.2,1.7c-55.6-17.7-118.7-37.8-192.2,6.8s-84.8,109.8-94.8,167.3c-9.3,53.3-17.3,99.3-70.4,131.5s-97.7,18.1-149.2,1.7c-55.6-17.7-118.7-37.8-192.2,6.8a26.36,26.36,0,0,0-5.4,4.5l26,42.9a24.23,24.23,0,0,0,6.5-2.7c53.2-32.2,97.7-18.1,149.2-1.7,55.6,17.7,118.7,37.8,192.2-6.8s84.8-109.8,94.8-167.3c9.3-53.3,17.3-99.3,70.4-131.5s97.7-18.1,149.2-1.7c55.6,17.7,118.7,37.8,192.2-6.8s84.8-109.8,94.8-167.3c9.3-53.3,17.3-99.3,70.4-131.6s97.7-18.1,149.2-1.7c55.6,17.7,118.7,37.8,192.2-6.8s84.8-109.8,94.8-167.3c9.3-53.3,17.3-99.3,70.4-131.6s97.7-18.1,149.2-1.7c53.4,17,113.7,36,183.4-1.9l-27.1-44.7C1561.1,473.2,1518.7,459.7,1470,444.2Z"/><path class="cls-1" d="M1414.5,352.6c-55.6-17.7-118.7-37.8-192.2,6.8s-84.8,109.8-94.8,167.3c-9.3,53.3-17.2,99.3-70.4,131.6s-97.7,18.1-149.2,1.7c-55.6-17.7-118.7-37.8-192.2,6.8s-84.8,109.8-94.8,167.3c-9.3,53.3-17.3,99.3-70.4,131.5s-97.7,18.1-149.2,1.7c-55.6-17.7-118.7-37.8-192.2,6.8s-84.8,109.8-94.8,167.3c-9.3,53.3-17.3,99.3-70.4,131.5s-97.7,18.1-149.2,1.7c-55.6-17.7-118.7-37.8-192.2,6.8a26.36,26.36,0,0,0-5.4,4.5l26,42.9a24.23,24.23,0,0,0,6.5-2.7c53.2-32.2,97.7-18.1,149.2-1.7C-65.5,1342-2.5,1362,71,1317.5s84.8-109.8,94.8-167.3c9.3-53.3,17.3-99.3,70.4-131.5s97.7-18.1,149.2-1.7c55.6,17.7,118.7,37.8,192.2-6.8s84.8-109.8,94.8-167.3c9.3-53.3,17.3-99.3,70.4-131.6s97.7-18.1,149.2-1.7c55.6,17.7,118.7,37.8,192.2-6.8S1169,593,1179,535.5c9.3-53.3,17.3-99.3,70.4-131.6s97.7-18.1,149.2-1.7c53.4,17,113.7,36,183.4-1.9l-27.1-44.7C1505.6,381.6,1463.2,368.1,1414.5,352.6Z"/><path class="cls-1" d="M1358.9,261c-55.6-17.7-118.7-37.8-192.2,6.8s-84.8,109.8-94.8,167.3c-9.3,53.3-17.2,99.3-70.4,131.6s-97.7,18.1-149.2,1.7c-55.6-17.7-118.7-37.8-192.2,6.8S575.3,685,565.3,742.5C556,795.8,548,841.8,494.9,874s-97.7,18.1-149.2,1.7C290.1,858,227,837.9,153.5,882.5S68.7,992.3,58.7,1049.8c-9.3,53.3-17.3,99.3-70.4,131.5s-97.7,18.1-149.2,1.7c-55.6-17.7-118.7-37.8-192.2,6.8a26.36,26.36,0,0,0-5.4,4.5l26,42.9a24.23,24.23,0,0,0,6.5-2.7c53.2-32.2,97.7-18.1,149.2-1.7,55.6,17.7,118.7,37.8,192.2-6.8s84.8-109.8,94.8-167.3c9.3-53.3,17.3-99.3,70.4-131.5s97.7-18.1,149.2-1.7c55.6,17.7,118.7,37.8,192.2-6.8s84.8-109.8,94.8-167.3c9.3-53.3,17.3-99.3,70.4-131.6s97.7-18.1,149.2-1.7c55.6,17.7,118.7,37.8,192.2-6.8s84.8-109.8,94.8-167.3c9.3-53.3,17.3-99.3,70.4-131.6s97.7-18.1,149.2-1.7c53.4,17,113.7,36,183.4-1.9l-27.1-44.7C1450,290,1407.6,276.5,1358.9,261Z"/><path class="cls-1" d="M1303.4,169.5c-55.6-17.7-118.7-37.8-192.2,6.8s-84.8,109.8-94.8,167.3c-9.3,53.3-17.2,99.3-70.4,131.6s-97.7,18.1-149.2,1.7c-55.6-17.7-118.7-37.8-192.2,6.8S519.8,593.5,509.8,651c-9.3,53.3-17.3,99.3-70.4,131.5s-97.7,18.1-149.2,1.7C234.6,766.5,171.5,746.4,98,791S13.2,900.6,3.2,958.1c-9.3,53.3-17.3,99.3-70.4,131.5s-97.7,18.1-149.2,1.7c-55.6-17.7-118.7-37.8-192.2,6.8a26.36,26.36,0,0,0-5.4,4.5l26,42.9a24.23,24.23,0,0,0,6.5-2.7c53.2-32.2,97.7-18.1,149.2-1.7,55.6,17.7,118.7,37.8,192.2-6.8S44.7,1024.5,54.7,967C64,913.7,72,867.7,125.1,835.5s97.7-18.1,149.2-1.7c55.6,17.7,118.7,37.8,192.2-6.8s84.8-109.8,94.8-167.3c9.3-53.3,17.3-99.3,70.4-131.6s97.7-18.1,149.2-1.7c55.6,17.7,118.7,37.8,192.2-6.8s84.8-109.8,94.8-167.3c9.3-53.3,17.3-99.3,70.4-131.6s97.7-18.1,149.2-1.7c53.4,17,113.7,36,183.4-1.9l-27.1-44.7C1394.5,198.4,1352.1,185,1303.4,169.5Z"/><path class="cls-1" d="M1244.4,72.2c-55.6-17.7-118.7-37.8-192.2,6.8s-84.8,109.8-94.8,167.3c-9.3,53.3-17.2,99.3-70.4,131.6s-97.7,18.1-149.2,1.7c-55.6-17.7-118.7-37.8-192.2,6.8s-84.8,109.8-94.8,167.3c-9.3,53.3-17.3,99.3-70.4,131.5s-97.7,18.1-149.2,1.7c-55.6-17.9-118.7-38-192.2,6.6S-45.8,803.3-55.8,860.8c-9.3,53.3-17.3,99.3-70.4,131.5s-97.7,18.1-149.2,1.7c-55.6-17.7-118.7-37.8-192.2,6.8a26.36,26.36,0,0,0-5.4,4.5l26,42.9a24.23,24.23,0,0,0,6.5-2.7c53.2-32.2,97.7-18.1,149.2-1.7,55.6,17.7,118.7,37.8,192.2-6.8S-14.3,927.2-4.3,869.7C5,816.4,13,770.4,66.1,738.2s97.7-18.1,149.2-1.7c55.6,17.7,118.7,37.8,192.2-6.8s84.8-109.8,94.8-167.3c9.3-53.3,17.3-99.3,70.4-131.6s97.7-18.1,149.2-1.7c55.6,17.7,118.7,37.8,192.2-6.8s84.8-109.8,94.8-167.3c9.3-53.3,17.3-99.3,70.4-131.6s97.7-18.1,149.2-1.7c53.4,17,113.7,36,183.4-1.9l-27.1-44.7C1335.5,101.1,1293.1,87.7,1244.4,72.2Z"/><path class="cls-1" d="M1188.8-19.4c-55.6-17.7-118.7-37.8-192.2,6.8S911.8,97.2,901.8,154.7c-9.3,53.3-17.2,99.3-70.4,131.6s-97.7,18.1-149.2,1.7c-55.6-17.7-118.7-37.8-192.2,6.8s-84.8,109.8-94.8,167.3c-9.3,53.3-17.3,99.3-70.4,131.5s-97.7,18.1-149.2,1.7C120,577.4,57,557.4-16.5,601.9s-84.8,109.8-94.8,167.3c-9.3,53.3-17.3,99.3-70.4,131.5s-97.7,18.1-149.2,1.7c-55.6-17.7-118.7-37.8-192.2,6.8a26.36,26.36,0,0,0-5.4,4.5l26,42.9a24.23,24.23,0,0,0,6.5-2.7c53.2-32.2,97.7-18.1,149.2-1.7,55.6,17.7,118.7,37.8,192.2-6.8s84.8-109.8,94.8-167.3c9.3-53.3,17.3-99.3,70.4-131.5s97.7-18.1,149.2-1.7c55.6,17.7,118.7,37.8,192.2-6.8s84.8-109.8,94.8-167.3c9.3-53.3,17.3-99.3,70.4-131.6s97.7-18.1,149.2-1.7c55.6,17.7,118.7,37.8,192.2-6.8s84.8-109.8,94.8-167.3c9.3-53.3,17.3-99.3,70.4-131.6s97.7-18.1,149.2-1.7c53.4,17,113.7,36,183.4-1.9l-27.1-44.7C1279.9,9.6,1237.5-3.9,1188.8-19.4Z"/><circle class="cls-2" cx="404" cy="421" r="404"/></svg>